<!--?xml version="1.0" encoding="utf-8"?-->
<!-- Svg Vector Icons : http://www.onlinewebfonts.com/icon -->

<svg version="1.1" xmlns="http://www.w3.org/2000/svg" xmlns:xlink="http://www.w3.org/1999/xlink" x="0px" y="0px" viewBox="0 0 256 256" enable-background="new 0 0 256 256" xml:space="preserve">
<metadata> Svg Vector Icons : http://www.onlinewebfonts.com/icon </metadata>
<g><g><g><path fill="#f3c300" data-title="Layer 0" xs="0" d="M125.6,40.8C92.3,46.6,65.4,72.9,59,105.7l-0.9,4.9h-2.9c-4.1,0-10.6,1.3-15,3.1c-13.9,5.5-23.8,16.4-28.3,31.1c-1.4,4.7-1.5,5.4-1.7,21.2c-0.2,17.9-0.1,19.2,2.8,22.5c3.5,3.9,4.2,4.1,20.2,4.1h14.3l1.8,3.8c5.9,12.1,18.5,20.1,32,20.1c12.2-0.1,25.2-8.2,30.5-19.2l2.2-4.5h20l20-0.1l1.8,3.8c5.9,12.2,18.5,20.1,32,20.1c12.2-0.1,25.2-8.2,30.5-19.2l2.2-4.5h8.5c9.5-0.1,11.3-0.6,14.4-4.2c2.9-3.4,3-4,2.7-30.5c-0.3-25.9-0.4-27.2-3.5-39.4c-8-31.9-32.5-59.4-63.8-71.8C162.1,40.3,141.5,37.9,125.6,40.8z M159.6,65.2c22,5.2,41.4,20.2,53.1,41c1,1.7,1.8,3.4,1.8,3.8c0,0.4-8.5,0.6-31.6,0.6h-31.6V87V63.4l1.8,0.3C154.1,63.9,157,64.6,159.6,65.2z M128,87.3v23.3h-23c-26.5,0-23.9,0.8-21.6-6.8c5.7-18.3,21-33.2,39.8-38.7c1.8-0.6,3.7-1,4-1C127.8,64,128,69,128,87.3z M222.1,134.5c0.2,0.4,0.6,8.4,0.6,17.7l0.2,17.1h-1.3c-1.1,0-1.6-0.8-3.2-3.9c-2.3-4.8-8.5-11.6-13-14.3c-5.4-3.2-9.9-4.6-16.4-4.9c-7-0.3-11.6,0.6-17.7,3.6c-5.8,2.8-12.3,9.3-15.2,15.2l-2.1,4.3h-20h-20l-1.9-3.9c-2.3-4.7-8.5-11.6-13-14.3c-1.7-1-4.8-2.5-6.9-3.3c-3.3-1.2-4.6-1.4-10.9-1.4c-6.2-0.1-7.8,0.1-11.3,1.3c-8.4,2.8-16.2,9.5-20.3,17.5l-2,4.2h-7.2h-7.2l0.2-8.8c0.2-7.2,0.4-9.2,1.4-11.6c2.5-6.3,8.3-11.8,14.7-14c2.8-0.9,7.1-1,87.6-1.1C204.1,133.8,221.7,134,222.1,134.5z M87.2,171c3.3,2.3,5,5.3,5.2,9.5c0.2,2.9,0,4.1-0.9,5.9c-3.8,7.5-13.4,9.1-19.2,3.2c-5.9-5.9-4.3-15.2,3.3-19.3C78.2,168.7,84.6,169.2,87.2,171z M193.7,171.1c3.2,2.2,5.2,6,5.2,10c0,10.7-12.7,16-20.2,8.4c-5.9-5.9-4.3-15.6,3.3-19.2C185.4,168.7,190.7,169.1,193.7,171.1z"/></g></g></g>
</svg>