<!--?xml version="1.0" encoding="utf-8"?-->
<!-- Svg Vector Icons : http://www.onlinewebfonts.com/icon -->

<svg version="1.1" xmlns="http://www.w3.org/2000/svg" xmlns:xlink="http://www.w3.org/1999/xlink" x="0px" y="0px" viewBox="0 0 256 256" enable-background="new 0 0 256 256" xml:space="preserve">
<metadata> Svg Vector Icons : http://www.onlinewebfonts.com/icon </metadata>
<g><g><g><g><path fill="#f3c300" data-title="Layer 0" xs="0" d="M219.4,173.7c-2.5,2.8-6,4.4-9.8,4.4c-3.7,0-7.3-1.6-9.8-4.4c-7.8-8.9-19.1-14.5-31.9-14.5c-12.7,0-23.9,5.5-31.7,14.3c-2.5,2.8-6,4.4-9.7,4.4c-3.7,0-7.2-1.6-9.7-4.4c-7.8-8.7-19-14.3-31.7-14.3c-12.7,0-23.9,5.5-31.7,14.3c-2.5,2.8-6,4.4-9.7,4.4l0,0c-3.7,0-7.2-1.6-9.7-4.4c-6.1-6.9-14.5-11.6-24-13.4v25.7c2,1,3.9,2.4,5.5,4.1c7.2,8,17.4,12.7,28.2,12.7s21-4.6,28.2-12.7c3.4-3.9,8.1-6,13.2-6c5.1,0,9.8,2.1,13.2,6c7.1,8,17.4,12.7,28.2,12.7c10.8,0,21-4.6,28.2-12.7c3.4-3.9,8.1-6,13.2-6c7,0,11.3,3.8,13.3,6.1c7.1,8.2,17.5,12.9,28.4,12.9c10.9,0,21.2-4.7,28.4-12.9c1.4-1.6,4.1-4,8-5.2v-24.9C235.4,161,226.1,166,219.4,173.7z"/><path fill="#f3c300" data-title="Layer 1" xs="1" d="M193.2,88.7c16.8,0,30.4,13.6,30.4,30.4c0,16.8-13.6,30.4-30.4,30.4c-16.8,0-30.4-13.6-30.4-30.4C162.8,102.3,176.5,88.7,193.2,88.7z"/><path fill="#f3c300" data-title="Layer 2" xs="2" d="M122.9,167.9c1.8,2,5.3,2,7.1,0c7.8-8.8,18.3-14.4,29.7-16.3c0.8-4.6,0.6-9.5-1.1-14.3c-0.9-2.5-10.5-35-10.5-35c0-0.1-1.2-6.8,2.9-12.8c4.1-6,12.6-10,24.6-11.8c6.7-1,11.4-7.3,10.4-14c-1-6.7-7.2-11.4-14-10.4c-19.3,2.9-33.2,10.4-41.3,22.3c-10.2,14.8-7,30.4-6.6,32.4l2.6,10.6c-1.6,0.3-3.2,0.6-4.8,1.2l-49.8,17.6c-11.1,3.9-18.3,14-19.1,25.1c9-7.4,20.3-11.6,32.1-11.6C99.5,150.9,113.3,157.1,122.9,167.9z"/></g></g><g></g><g></g><g></g><g></g><g></g><g></g><g></g><g></g><g></g><g></g><g></g><g></g><g></g><g></g><g></g></g></g>
</svg>