<!--?xml version="1.0" encoding="utf-8"?-->
<!-- Svg Vector Icons : http://www.onlinewebfonts.com/icon -->

<svg version="1.1" xmlns="http://www.w3.org/2000/svg" xmlns:xlink="http://www.w3.org/1999/xlink" x="0px" y="0px" viewBox="0 0 256 256" enable-background="new 0 0 256 256" xml:space="preserve">
<metadata> Svg Vector Icons : http://www.onlinewebfonts.com/icon </metadata>
<g><g><g><path fill="#f3c300" data-title="Layer 0" xs="0" d="M110.7,10.3C85.1,13,62.4,31,55.1,54.5c-1.7,5.5-2.4,10.7-2.1,17c0.3,6.6,1.2,10.1,4,15.9l2.1,4.4l0.4-2c0.8-4.4,3.6-7.9,7.8-9.8c2.1-1,3-1.1,5.8-0.9c1.9,0.1,3.8,0.3,4.3,0.4c0.7,0.1,0.9-0.2,1.2-2c1.2-7.8,9.7-13.1,17-10.4c1,0.4,1.9,0.7,2,0.7c0,0,0.1-0.5,0.1-1.1c0-2.2,1.4-5.8,3.1-7.7l1.7-2l3.6,5.6l3.6,5.6h2.4c1.3,0,2.3-0.1,2.3-0.2c0-0.1-1.9-3.1-4.2-6.5c-2.3-3.5-4.2-6.4-4.2-6.5c0-0.4,3.5-1.2,5.4-1.2c1,0,2.6,0.3,3.5,0.7l1.7,0.6L117,53c0.6-4.5,3.5-8.4,7.7-10.5c2.7-1.3,7.3-1.4,10.2-0.3l2,0.8v-2c0.1-7.7,8.1-14.1,15.4-12.5c1.1,0.2,2.1,0.4,2.2,0.3c0.3-0.3-2.3-3.5-4.9-6.2C140.3,13.6,125.1,8.7,110.7,10.3z"/><path fill="#f3c300" data-title="Layer 1" xs="1" d="M101.8,72.1c-8.7,22.7-13.2,47.2-11.8,63.7c2.5,28.9,17.4,43.1,47.3,45.2l4.5,0.3v25v25l-3.4,2c-8.8,5-22.3,8.4-32.9,8.5h-3.9v2.1v2.1h44.8h44.8l-0.1-2l-0.1-2l-5.6-0.3c-6.7-0.4-14.3-1.8-20.3-3.7c-4.4-1.5-10.7-4.4-13.1-6.1l-1.3-0.9v-24.9v-24.9l4.8-0.3c21.6-1.4,35.1-9.2,42.3-24.6c7.2-15.4,6.8-39.4-1.2-67.2c-2-6.8-5.8-18.1-6.8-20.1c-0.4-0.7-2.7-0.8-37.5-0.8c-20.4,0-37.1,0.2-37.1,0.4c0,0.2,5.8,9.3,13,20.2l13,19.8l25.7,0.1l25.7,0.1l0.6,2.5c1.7,8.1,2.1,20.3,0.8,27.6c-3.2,17.6-13,28.3-29.5,32.2c-4.3,1-6.6,1.2-14.6,1.4c-14.6,0.4-23.2-0.9-31-4.8c-12.2-5.9-18.9-16.6-20.8-32.7c-0.8-6.9,0.1-20.3,1.7-25.5c0.2-0.7,1.5-0.8,18.4-0.8h18.1L123,88.6l-13.3-20.3h-3.2h-3.2L101.8,72.1z"/><path fill="#f3c300" data-title="Layer 2" xs="2" d="M137,109.5c0.1,0.4,2.7,4.3,5.6,8.9c5.8,8.8,5.5,8.5,7.9,6.7c0.9-0.7,0.7-1-4.1-8.4l-5-7.7h-2.3C137.3,108.9,136.8,109,137,109.5z"/></g></g></g>
</svg>