<!--?xml version="1.0" encoding="utf-8"?-->
<!-- Svg Vector Icons : http://www.onlinewebfonts.com/icon -->

<svg version="1.1" xmlns="http://www.w3.org/2000/svg" xmlns:xlink="http://www.w3.org/1999/xlink" x="0px" y="0px" viewBox="0 0 256 256" enable-background="new 0 0 256 256" xml:space="preserve">
<metadata> Svg Vector Icons : http://www.onlinewebfonts.com/icon </metadata>
<g><g><g><path fill="#f3c300" data-title="Layer 0" xs="0" d="M156.4,162.5c-1.8,0-3.2-1.4-3.3-3.3c0-1.8,1.4-3.3,3.2-3.3c1.8,0,3.3,1.4,3.3,3.3C159.6,161,158.1,162.4,156.4,162.5z M98.2,160c0,1.8,1.5,3.3,3.3,3.3c1.8,0,3.2-1.5,3.2-3.3c0-1.8-1.5-3.3-3.3-3.3C99.6,156.7,98.2,158.2,98.2,160z M129,173.8c-12.4,0.2-22.3,10.4-22.2,22.8l0.4,26c0,1.3,1.1,2.3,2.3,2.2c1.3,0,2.3-1.1,2.2-2.3l-0.4-26c-0.1-9.9,7.8-18,17.7-18.2c9.9-0.1,18,7.8,18.2,17.7l0.4,26.9c0,1.3,1.1,2.3,2.3,2.2c1.3,0,2.3-1.1,2.2-2.3l-0.4-26.9C151.7,183.6,141.4,173.6,129,173.8z M136.1,204.9C136.1,204.9,136.1,204.9,136.1,204.9c4.6,0,7.8-3.3,8-3.5c0.9-0.9,0.8-2.4-0.1-3.2c-0.9-0.9-2.3-0.8-3.2,0.1c0,0-1.9,2.2-4.7,2.1c-1.5,0-2.9-0.7-4.3-1.9l0-3.6c1.4,0.6,2.8,1,4.3,0.9c0,0,0,0,0,0c4.6-0.1,7.8-3.3,7.9-3.5c0.9-0.9,0.8-2.4,0-3.2c-0.9-0.9-2.4-0.8-3.2,0c0,0-2,2-4.7,2.1c0,0,0,0,0,0c-1.5,0-2.9-0.7-4.3-1.9l0-4c0-1.3-1.1-2.3-2.3-2.2c-1.3,0-2.3,1.1-2.2,2.3l0,4c-1.4,1.3-2.8,2-4.2,2c-2.6-0.1-4.8-1.9-4.8-2c-0.9-0.9-2.3-0.8-3.2,0c-0.9,0.9-0.9,2.4,0,3.2c0.1,0.1,3.4,3.3,8,3.3c0,0,0,0,0,0c1.5,0,2.9-0.4,4.3-1.1l0,3.6c-1.4,1.3-2.8,2-4.2,2c0,0,0,0,0,0c-2.6,0-4.7-1.9-4.8-2c-0.9-0.9-2.3-0.8-3.2,0c-0.9,0.9-0.9,2.4,0,3.2c0.1,0.1,3.4,3.3,8,3.3c0,0,0,0,0,0c1.5,0,2.9-0.4,4.3-1.1l0.1,4.9c-1.4,1.3-2.8,2-4.3,2c0,0,0,0,0,0c-2.6,0-4.7-1.9-4.8-2c-0.9-0.9-2.3-0.8-3.2,0c-0.9,0.9-0.9,2.4,0,3.2c0.1,0.1,3.4,3.3,8,3.3c0,0,0,0,0,0c1.5,0,2.9-0.4,4.3-1.1v0.9c0,1.3,1.1,2.3,2.3,2.3c1.3,0,2.3-1.1,2.2-2.3v-0.9c1.4,0.6,2.8,0.9,4.3,0.9c0,0,0,0,0,0c4.6-0.1,7.8-3.3,7.9-3.5c0.9-0.9,0.8-2.3,0-3.2c-0.9-0.9-2.3-0.9-3.2,0c0,0-2.1,2-4.8,2.1c-1.4,0-2.9-0.7-4.3-1.9l-0.1-4.9C133.2,204.6,134.6,204.9,136.1,204.9z M129.7,221.8c-1.5,0-2.7,1.3-2.7,2.8c0,1.5,1.3,2.8,2.8,2.7c1.5,0,2.7-1.3,2.7-2.8C132.5,223,131.3,221.8,129.7,221.8z M18.8,35.5c-1.3,0-2.3,1.1-2.3,2.3L17,69c0,1.3,1.1,2.3,2.3,2.3c1.3,0,2.3-1.1,2.2-2.3l-0.4-31.2C21.1,36.5,20.1,35.5,18.8,35.5z M76.2,70.5c1.3,0,2.3-1.1,2.2-2.3L78,37c0-1.3-1.1-2.3-2.3-2.2c-1.3,0-2.3,1.1-2.2,2.3l0.5,31.2C73.9,69.5,74.9,70.5,76.2,70.5z M12.2,44.7c-1.3,0-2.3,1.1-2.2,2.3l0.2,13c0,1.3,1.1,2.3,2.3,2.2c1.3,0,2.3-1.1,2.2-2.3l-0.2-13C14.6,45.7,13.5,44.7,12.2,44.7z M82.7,61.2c1.3,0,2.3-1.1,2.2-2.3l-0.2-13c0-1.3-1.1-2.3-2.3-2.3c-1.3,0-2.3,1.1-2.3,2.3l0.2,13C80.4,60.2,81.5,61.3,82.7,61.2z M50.1,113.4c-0.1-1.3-1.3-2.1-2.5-2c-1.3,0.1-2.1,1.3-2,2.5c0,0.2,2.4,19.4,24.1,20.9c0.1,0,0.1,0,0.2,0c1.2,0,2.2-0.9,2.2-2.1c0.1-1.3-0.9-2.3-2.1-2.4C52.1,129,50.2,114.1,50.1,113.4z M229.9,28.7c-1.3,0-2.3,1.1-2.2,2.3l0.2,17.1l-6.5,0.1c-0.1-0.3-0.2-0.6-0.4-0.8c-0.1-1.2-0.6-3.8-2.4-5.5c-1-0.9-2.2-1.4-3.5-1.6c-1.1-0.9-2.8-1.7-5.2-1.5c-1-0.4-2.6-0.8-4.9-0.3c-1-0.2-2.7-0.2-5,0.5c-1.1-0.1-2.5,0-3.6,1c-1.2,1-1.8,2.7-1.8,4.9c-0.3,0.2-0.5,0.4-0.8,0.7c-0.7,0.8-1.1,1.8-1.3,3l-3.5,0l-0.2-17.1c0-1.3-1.1-2.3-2.3-2.3c-1.3,0-2.3,1.1-2.2,2.3l0.6,38.8c0,1.3,1.1,2.3,2.3,2.2c1.3,0,2.3-1.1,2.2-2.3l-0.2-17.1l3.6,0c0,0.2,0,0.3,0.1,0.5c0,0.3,0.1,0.5,0.3,0.8c0.2,0.3,4.5,7.4,9.9,10.8c0.5,3.7,0.9,8.9,0.6,10.4c-1.3,6.1-2.6,14.6,0.2,21.4c-3.3,1.3-9,3.7-11.7,6.1c-3,2.7-9.8,9.2-13.4,14.3c-10.7-4.5-28-8.7-33.6-10c0.1-7.1,1.1-11.3,1.4-12.3c3.2-5.3,4.1-9.4,3-12.4c-0.4-0.9-0.9-1.6-1.4-2.1c1.9-19.6-13.8-23.1-14.1-23.2c-0.1,0-3.9-0.7-6.5-0.4c-2.9-0.2-6.6,0.5-6.8,0.6c-0.1,0-15.7,4-13.3,23.5c-0.6,0.5-1.1,1.3-1.4,2.1c-1.1,3,0,7.1,3.3,12.3c0.3,1,1.4,5.2,1.7,12.2c-5.5,1.2-21.8,5.2-31.7,11.2c-3.8-5-10.9-11.4-13.9-14.1c-2.7-2.4-8.5-4.6-11.8-5.8c2.6-6.9,1.1-15.4-0.4-21.4c-0.4-1.5-0.1-6.6,0.3-10.4c5.2-3.6,9.4-10.8,9.6-11.1c0.1-0.2,0.2-0.5,0.3-0.8c0-0.2,0-0.3,0-0.5l3.6,0l0.2,17.1c0,1.3,1.1,2.3,2.3,2.2c1.3,0,2.3-1.1,2.3-2.3l-0.6-38.8c0-1.3-1.1-2.3-2.3-2.2c-1.3,0-2.3,1.1-2.3,2.3L67,50.4l-3.5,0c-0.2-1.2-0.7-2.2-1.3-2.9c-0.2-0.3-0.5-0.5-0.8-0.7c0-2.2-0.6-3.9-1.9-4.8c-1.1-0.9-2.5-1-3.6-0.9c-2.3-0.7-4.1-0.6-5-0.4c-2.2-0.5-3.9,0-4.9,0.4c-2.5-0.1-4.1,0.7-5.2,1.7c-1.3,0.2-2.5,0.7-3.5,1.7c-1.8,1.8-2.2,4.3-2.3,5.5c-0.1,0.3-0.2,0.6-0.4,0.9L28,50.9l-0.2-17.1c0-1.3-1.1-2.3-2.3-2.3c-1.3,0-2.3,1.1-2.2,2.3l0.6,38.8c0,1.3,1.1,2.3,2.3,2.3c1.3,0,2.3-1.1,2.2-2.3l-0.2-17.1l5.3-0.1c-0.3,2.6-0.2,4.7-0.2,5.1c0,0.2,0,0.4,0.1,0.6c0.6,1.9,2.6,7.6,1.7,9.3c-3.4,6.6-7.4,25.4-7.6,26.3c-2,14.3,4.7,23.6,9.1,29.7l0.6,0.8c5.5,7.6,14.4,12.8,17.3,14.4c3.3,13.4,14.1,18.2,21.8,19.1c-0.8,5.1,1.7,14.1,19.1,27.6c-0.3,5.2-1.2,25.1,3.6,36.7c0.4,0.9,1.2,1.4,2.1,1.4c0.3,0,0.6-0.1,0.8-0.2c1.2-0.5,1.7-1.8,1.3-3c-5-12.1-3.2-35.6-3.2-35.8c0.1-0.8-0.3-1.5-0.9-2c-18.9-14.3-18.9-22.1-18.2-24.7c0.2-0.1,0.4-0.2,0.6-0.4c3.8,7,12,11.8,21.4,11.7c12.9-0.2,23.3-9.5,23.1-20.9l-0.1-9.4c0-1.3-1.1-2.3-2.3-2.2c-1.3,0-2.3,1.1-2.2,2.3l0.1,9.4c0.1,8.8-8.2,16.1-18.6,16.2s-19-6.9-19.1-15.7c0-1.3-1.1-2.3-2.3-2.2c-1.3,0-2.3,1.1-2.2,2.3c0,1.6,0.3,3.1,0.7,4.6c-6.2,0.2-18.4-3-21.2-16.8c-0.1-0.7-0.6-1.3-1.3-1.6c-0.1,0-10.8-5.3-16.6-13.4l-0.6-0.9c-4.2-5.9-10-13.9-8.3-26.3c0-0.2,4.1-19,7.2-25c1.6-3.1,0.2-8.1-1.3-12.6c-0.1-1.8,0-5.9,1.3-8.2c0.2-0.3,0.3-0.7,0.3-1.2c0-0.5,0.2-2.2,0.9-2.9c0.2-0.2,0.6-0.4,1.3-0.4c0.8,0.1,1.5-0.3,2-1c0.1-0.1,0.7-0.8,2.4-0.6c0.5,0.1,1.1-0.1,1.6-0.4c0,0,0.9-0.5,2.6-0.1c0.4,0.1,0.9,0.1,1.3,0c0.1,0,1.3-0.4,3.5,0.4c0.5,0.2,1.1,0.1,1.6-0.1c0,0,0.4,0.6,0.1,2.6c-0.1,0.7,0,1.3,0.4,1.8c0.5,0.5,0.9,0.7,1.6,0.7c0,0,0.7,0.7,0.3,3.8c-1.4,2.3-5,7.6-8.7,9.7c-0.6,0.4-1.1,1-1.1,1.7c-0.2,1.6-1.1,10-0.3,13.1c1.5,6,3,14.7-0.3,20.5c-0.3,0.6-0.4,1.3-0.1,2c0.2,0.6,0.8,1.1,1.4,1.3c2.6,0.8,10.1,3.5,12.7,5.7c2.5,2.1,10.7,9.4,13.9,14.3c0,0.3,0.2,0.7,0.4,1c0.5,0.6,1.2,1,1.9,1c0.5,0,0.9-0.1,1.3-0.4c10.5-7.5,33.7-12.2,34-12.2c1.1-0.2,1.9-1.2,1.8-2.3c-0.1-10-2-15.5-2.1-15.7c-0.1-0.2-0.1-0.3-0.2-0.5c-3.4-5.3-3.3-7.6-3.1-8.4c0.1-0.5,0.3-0.6,0.3-0.6c1.1-0.3,1.7-1.4,1.6-2.6c-2.7-16.5,9.1-19.7,9.5-19.8c0.9-0.2,3.6-0.6,5.5-0.5c0.1,0,0.4,0,0.5,0c2.2-0.2,5.4,0.3,5.4,0.3c0.5,0.1,12.4,2.8,10.2,19.5c-0.1,1.1,0.4,2.1,1.5,2.5c0,0,0.3,0.1,0.4,0.6c0.2,0.8,0.4,3.1-2.8,8.5c-0.1,0.1-0.2,0.3-0.2,0.5c-0.1,0.2-1.8,5.7-1.7,15.8c0,1.1,0.8,2,1.8,2.2c0.2,0,24,5.4,36,10.7c0.6,0.3,1.3,0.2,1.9,0c0.6-0.1,1.2-0.5,1.5-1c3.1-4.9,11.1-12.5,13.5-14.7c2.5-2.3,9.9-5.2,12.5-6.1c0.7-0.2,1.2-0.7,1.4-1.4c0.2-0.7,0.2-1.4-0.2-2c-3.5-5.7-2.2-14.4-0.9-20.5c0.7-3.1-0.5-11.4-0.7-13c-0.1-0.7-0.6-1.3-1.2-1.7c-4.1-2.2-8-8-9-9.5c-0.5-2.8,0-3.7-0.2-3.8c0.7,0,1.3-0.3,1.7-0.8c0.5-0.5,0.7-1.2,0.6-1.9c-0.3-2,0-2.6,0.1-2.5c0.5,0.2,1.1,0.2,1.6,0c2.1-0.8,3.4-0.5,3.4-0.5c0.5,0.1,0.9,0.1,1.3,0c1.6-0.5,2.5,0,2.5,0l0,0c0.5,0.3,1.1,0.5,1.7,0.4c1.7-0.3,2.3,0.4,2.3,0.4c0.5,0.7,1.3,1.1,2,1c0.7,0,1.1,0.2,1.3,0.4c0.8,0.7,1,2.4,1,2.9c0,0.4,0.1,0.8,0.3,1.2c1.4,2.3,1.6,6.4,1.6,8.2c-1.4,4.5-2.7,9.5-1,12.6c3.3,6,7.9,24.6,7.9,24.6c2.1,12.5-3.5,20.7-7.5,26.7l-0.6,0.9c-5.6,8.3-16.1,13.8-16.2,13.9c-0.6,0.3-1.1,0.9-1.2,1.6c-2.5,13.9-14.6,17.6-20.8,17.4c-0.6,0-1.1,0.2-1.5,0.6c0.5-1.6,0.8-3.3,0.7-5.1c0-1.3-1.1-2.3-2.3-2.2c-1.3,0-2.3,1.1-2.2,2.3c0.1,8.8-8.2,16.1-18.6,16.2c-10.4,0.1-19-6.9-19.1-15.7l-0.1-9.4c0-1.3-1.1-2.3-2.3-2.2c-1.3,0-2.3,1.1-2.2,2.3l0.1,9.4c0.1,11.3,10.8,20.4,23.7,20.2c9.7-0.1,17.9-5.4,21.4-12.8c0,0.2,0,0.4,0.1,0.6c0.9,2,2.2,9.9-17.3,25.6c-0.6,0.5-0.9,1.3-0.8,2c0,0.2,2.5,23.6-2.2,35.9c-0.4,1.2,0.1,2.5,1.3,2.9c0.3,0.1,0.6,0.1,0.8,0.1c0.9,0,1.8-0.6,2.1-1.5c4.4-11.7,3-31.5,2.5-36.8c16.9-13.8,19.2-22.9,18.3-28c7.7-0.8,19.6-5.6,22.7-20c2.9-1.7,11.7-7.1,16.9-14.8l0.6-0.9c4.2-6.3,10.6-15.7,8.2-30.1c-0.2-0.8-4.8-19.4-8.4-25.9c-0.9-1.7,0.8-7.5,1.4-9.3c0-0.2,0.1-0.4,0.1-0.6c0-0.4,0.1-2.6-0.3-5.1l5.3-0.1l0.2,17.1c0,1.3,1.1,2.3,2.3,2.3c1.3,0,2.3-1.1,2.2-2.3l-0.6-38.9C232.2,29.6,231.2,28.6,229.9,28.7z M236.7,32.4c-1.3,0-2.3,1.1-2.2,2.3l0.4,31.2c0,1.3,1.1,2.3,2.3,2.3c1.3,0,2.3-1.1,2.2-2.3L239,34.6C239,33.3,238,32.3,236.7,32.4z M180.4,69c1.3,0,2.3-1.1,2.2-2.3l-0.5-31.2c0-1.3-1.1-2.3-2.3-2.3c-1.3,0-2.3,1.1-2.2,2.3l0.4,31.2C178,68,179.1,69,180.4,69z M243.5,41.4c-1.3,0-2.3,1.1-2.2,2.3l0.2,13c0,1.3,1.1,2.3,2.3,2.2c1.3,0,2.3-1.1,2.2-2.3l-0.2-13C245.8,42.4,244.8,41.4,243.5,41.4z M173.5,59.9c1.3,0,2.3-1.1,2.3-2.3l-0.2-13c0-1.3-1.1-2.3-2.3-2.2c-1.3,0-2.3,1.1-2.2,2.3l0.2,13C171.2,58.9,172.3,60,173.5,59.9z M188.8,133.1c21.6-2.1,23.4-21.4,23.5-21.6c0.1-1.3-0.8-2.4-2.1-2.5c-1.2-0.1-2.4,0.8-2.5,2.1c0,0.6-1.5,15.6-19.3,17.4c-1.3,0.1-2.2,1.3-2,2.5c0.1,1.2,1.1,2.1,2.3,2.1C188.6,133.1,188.7,133.1,188.8,133.1z"/></g><g></g><g></g><g></g><g></g><g></g><g></g><g></g><g></g><g></g><g></g><g></g><g></g><g></g><g></g><g></g></g></g>
</svg>