<!--?xml version="1.0" encoding="utf-8"?-->
<!-- Svg Vector Icons : http://www.onlinewebfonts.com/icon -->

<svg version="1.1" xmlns="http://www.w3.org/2000/svg" xmlns:xlink="http://www.w3.org/1999/xlink" x="0px" y="0px" viewBox="0 0 256 256" enable-background="new 0 0 256 256" xml:space="preserve">
<metadata> Svg Vector Icons : http://www.onlinewebfonts.com/icon </metadata>
<g><g><g><path fill="#f3c300" data-title="Layer 0" xs="0" d="M84.7,10.1c-5,0.5-9.6,1.2-12.9,2.1c-4.2,1.1-9.9,3.8-9.9,4.7c0,0.3-0.5,5.3-1.2,11c-2.7,24.5-4.2,49.4-3.4,57.2c1.1,11.4,5.6,18.5,17.5,27.6c2.9,2.3,5.1,4.2,5.3,4.9c0.4,1.3,0.1,8.5-1.2,24.7c-1.6,20.1-2.4,30.9-2.7,41.5c-0.4,10.8,0,28.2,0.9,36.5c1.4,13.3,5.1,21.7,11,24.5c1.8,0.9,2.9,1.1,6.8,1.1c4.3,0,4.8-0.1,7.2-1.4c6.5-3.6,9.4-11.4,10.9-29.4c1.3-15.3,0.6-37.4-2.4-73.5c-1.4-16.7-1.7-23.3-1.2-24.2c0.3-0.5,2.7-2.6,5.4-4.7c8.7-6.7,12.4-11,15-17.5c3.6-8.9,3.5-16-0.6-61.8c-0.8-8.5-1.5-15.9-1.6-16.4c-0.4-1.8-8.3-4.6-17.1-6C106.1,10.3,88.8,9.7,84.7,10.1z M97.5,19.6h2.2l0.1,24.7l0.1,24.7L101,70c1.6,1.6,4.7,1.5,6.4-0.2l1.3-1.2l0.1-24l0.1-24h1c1.1,0,8.2,1.7,8.5,2c0.7,0.7,4.3,46,4.4,55.4c0.1,8.1-0.3,10.7-2.5,15.2c-1.8,3.9-4.3,6.6-11,11.7c-9.6,7.4-10,8.3-9.6,19c0.1,4.2,0.6,11,1,15.2c1.1,12.5,3,39.8,3.2,48.5c0.3,9.2-0.4,27.4-1.4,34.4c-1.1,7.7-2.9,13-4.8,14c-0.5,0.2-2,0.5-3.4,0.5c-2.3,0-2.7-0.1-3.7-1.4c-3.4-4-5.4-18.7-5.4-39.3c0-12,0.4-20,2.3-44.3c2.1-27,2.5-33.7,1.9-35.8c-0.9-3.4-3.1-6-9.2-10.8c-8.1-6.3-10.5-9.2-12.6-15.2c-1-2.9-1.1-3.7-1-14.1c0-11.2,0.6-19.2,2.8-41.1c0.7-7.2,1.4-12.1,1.8-12.3c0.6-0.4,6.1-1.6,8.1-1.8l1.2-0.1l0.2,24c0.2,18.6,0.4,24.2,0.8,25.1c1.3,2.3,5,2.4,7.1,0.3l1.1-1.2L89.9,44L90,19.6l1.7-0.2c0.9-0.1,2.1-0.1,2.6,0C94.9,19.5,96.3,19.6,97.5,19.6z"/><path fill="#f3c300" data-title="Layer 1" xs="1" d="M154.4,10.3c-0.5,0.2-1.3,0.9-1.8,1.4c-0.9,1-0.9,1.7-0.9,60.4c0,57,0,59.9-1.1,72.3c-5.4,68.1-4.9,92.1,1.8,98.4c3.3,3.1,10,3.9,14.6,1.8c3.6-1.7,5.8-3.6,8.3-7.4c2.5-3.8,4.6-8.7,6-14.5c3.1-12.8,4.1-34,2.1-47.1c-0.9-5.8-2-10.3-4.6-18.7c-3.3-10.3-3.5-11.3-3.5-14.9c0-5.5,1.3-9,10.7-26.2c10.1-18.6,12.9-27.6,12.9-40.2c0-22.8-9.6-43.9-25.6-56.3C165.2,13.1,157.1,9.2,154.4,10.3z M167.8,27c13.7,10.9,21.6,28.6,21.6,48.7c0,6.3-0.1,7.4-1.4,12.2c-1.8,6.9-4.4,12.7-11.2,25.3c-12.5,23-13.2,27.1-7.8,44c4.9,15.1,6,21.4,6,34.8c0,27.1-5.6,44.7-14.3,44.7c-2.8,0-3.6-3.9-4.2-17.8c-0.4-12.9,0-23.5,2.5-60.7l2.1-31.2l-0.1-52.3l0-52.3l2,1.2C164.1,24.2,166.2,25.7,167.8,27z"/></g></g></g>
</svg>