<!--?xml version="1.0" encoding="utf-8"?-->
<!-- Svg Vector Icons : http://www.onlinewebfonts.com/icon -->

<svg version="1.1" xmlns="http://www.w3.org/2000/svg" xmlns:xlink="http://www.w3.org/1999/xlink" x="0px" y="0px" viewBox="0 0 256 256" enable-background="new 0 0 256 256" xml:space="preserve">
<metadata> Svg Vector Icons : http://www.onlinewebfonts.com/icon </metadata>
<g><g><g><path fill="#eef405" data-title="Layer 0" xs="0" d="M172.5,24.8c-3.4,0.8-6.9,2.9-9.5,5.7c-7.3,7.8-7.1,19.8,0.5,27.4c4.5,4.4,10.3,6.4,16.3,5.4c15.3-2.4,21.7-21.5,10.9-32.9C185.9,25.3,179.1,23.1,172.5,24.8z"/><path fill="#eef405" data-title="Layer 1" xs="1" d="M142.7,64.3c-1.9,0.6,0.9-1.5-31.2,23.2c-31.4,24.2-30.5,23.5-31.7,25.8c-1.1,2.2-1.2,6-0.3,8.3c0.4,0.9,9.1,11.3,19.4,23.2l18.8,21.6v24c0,22.9,0,24.1,0.9,25.8c2,3.9,6,6,10.1,5.4c1.8-0.3,2.6-0.7,4.3-2.5c1.4-1.5,2.3-2.9,2.6-4.2c0.6-2.6,1.2-53.3,0.5-55.5c-0.2-0.9-6.5-8.7-16.3-20.4c-8.8-10.4-15.9-19.1-15.9-19.2c0-0.4,38.6-31.3,39.4-31.6c0.3-0.1,5.1,5.1,10.8,11.5l10.2,11.6l20.3,9.6c22.1,10.4,22.3,10.5,26.3,8.7c6-2.8,7.7-10.4,3.4-15.5c-0.9-1-6.1-3.7-19.6-10.2L176.2,95l-12.5-14.5c-8.4-9.7-13.1-14.8-14.1-15.3C147.5,64.1,144.7,63.8,142.7,64.3z"/><path fill="#eef405" data-title="Layer 2" xs="2" d="M196.5,143.3c-17.5,2.3-31.7,14.9-36.8,32.5c-0.9,3.2-1.1,4.7-1,11.8c0,7.5,0.1,8.4,1.3,12.2c5.4,17.5,19.6,29.6,37.3,31.7c15.6,1.9,32-5.6,40.9-18.7c11.8-17.5,10.2-40.3-4.1-55.9c-5.2-5.7-14-10.9-21.6-12.7C207.8,143.1,200.9,142.7,196.5,143.3z M207.4,161.9c11.7,2.5,20.7,13.6,20.7,25.4c0,11.8-8.7,22.6-20.4,25.4c-13.8,3.2-28.2-6-31.1-19.9c-1.9-8.9,0.6-17.1,7.2-23.7C190.4,162.5,198.6,160,207.4,161.9z"/><path fill="#eef405" data-title="Layer 3" xs="3" d="M44.6,144.4c-16.8,3.7-29.5,16.1-33.6,32.8c-1.3,5.2-1.4,14.3-0.2,19.5c3.9,17.2,17.9,30.7,35.1,33.7c3.6,0.6,11.8,0.6,15.3,0c5.6-1,12.5-3.8,17.3-7c2.8-1.9,7.5-6.5,9.9-9.6C97.3,202.4,99.8,187,95,173c-4.5-13.3-15.4-23.6-29.3-27.8c-3.4-1-5.1-1.2-11-1.4C49.7,143.8,47,143.9,44.6,144.4z M58.9,161.9c6.8,1.4,12.5,5.3,16.3,11c3.3,4.8,4.1,7.7,4.1,14.4c0,6.7-0.8,9.6-4.1,14.4c-2.7,4.1-5.5,6.6-10.1,8.9c-12.3,6.2-27.8,1.3-34.2-10.9c-2.2-4.2-3.1-7.8-3.1-12.3C27.7,170.8,42.8,158.5,58.9,161.9z"/></g></g></g>
</svg>